<mxfile host="Electron" agent="Mozilla/5.0 (Windows NT 10.0; Win64; x64) AppleWebKit/537.36 (KHTML, like Gecko) draw.io/24.7.8 Chrome/128.0.6613.36 Electron/32.0.1 Safari/537.36" version="24.7.8">
  <diagram name="Page-1" id="r68O3Df1R1tojOT3BFvH">
    <mxGraphModel dx="941" dy="554" grid="1" gridSize="10" guides="1" tooltips="1" connect="1" arrows="1" fold="1" page="1" pageScale="1" pageWidth="827" pageHeight="1169" math="0" shadow="0">
      <root>
        <mxCell id="0" />
        <mxCell id="1" parent="0" />
        <mxCell id="ZE7YXQP_bmyyAzH6sh49-1" value="feuxSignalisation" style="swimlane;fontStyle=1;align=center;verticalAlign=top;childLayout=stackLayout;horizontal=1;startSize=26;horizontalStack=0;resizeParent=1;resizeParentMax=0;resizeLast=0;collapsible=1;marginBottom=0;whiteSpace=wrap;html=1;" vertex="1" parent="1">
          <mxGeometry x="80" y="40" width="160" height="276" as="geometry" />
        </mxCell>
        <mxCell id="ZE7YXQP_bmyyAzH6sh49-2" value="- _id: string" style="text;strokeColor=none;fillColor=none;align=left;verticalAlign=top;spacingLeft=4;spacingRight=4;overflow=hidden;rotatable=0;points=[[0,0.5],[1,0.5]];portConstraint=eastwest;whiteSpace=wrap;html=1;" vertex="1" parent="ZE7YXQP_bmyyAzH6sh49-1">
          <mxGeometry y="26" width="160" height="26" as="geometry" />
        </mxCell>
        <mxCell id="ZE7YXQP_bmyyAzH6sh49-6" value="- _allumer: bool = false" style="text;strokeColor=none;fillColor=none;align=left;verticalAlign=top;spacingLeft=4;spacingRight=4;overflow=hidden;rotatable=0;points=[[0,0.5],[1,0.5]];portConstraint=eastwest;whiteSpace=wrap;html=1;" vertex="1" parent="ZE7YXQP_bmyyAzH6sh49-1">
          <mxGeometry y="52" width="160" height="26" as="geometry" />
        </mxCell>
        <mxCell id="ZE7YXQP_bmyyAzH6sh49-10" value="- _clignote: bool" style="text;strokeColor=none;fillColor=none;align=left;verticalAlign=top;spacingLeft=4;spacingRight=4;overflow=hidden;rotatable=0;points=[[0,0.5],[1,0.5]];portConstraint=eastwest;whiteSpace=wrap;html=1;" vertex="1" parent="ZE7YXQP_bmyyAzH6sh49-1">
          <mxGeometry y="78" width="160" height="26" as="geometry" />
        </mxCell>
        <mxCell id="ZE7YXQP_bmyyAzH6sh49-5" value="- _color: int = 0" style="text;strokeColor=none;fillColor=none;align=left;verticalAlign=top;spacingLeft=4;spacingRight=4;overflow=hidden;rotatable=0;points=[[0,0.5],[1,0.5]];portConstraint=eastwest;whiteSpace=wrap;html=1;" vertex="1" parent="ZE7YXQP_bmyyAzH6sh49-1">
          <mxGeometry y="104" width="160" height="26" as="geometry" />
        </mxCell>
        <mxCell id="ZE7YXQP_bmyyAzH6sh49-3" value="" style="line;strokeWidth=1;fillColor=none;align=left;verticalAlign=middle;spacingTop=-1;spacingLeft=3;spacingRight=3;rotatable=0;labelPosition=right;points=[];portConstraint=eastwest;strokeColor=inherit;" vertex="1" parent="ZE7YXQP_bmyyAzH6sh49-1">
          <mxGeometry y="130" width="160" height="8" as="geometry" />
        </mxCell>
        <mxCell id="ZE7YXQP_bmyyAzH6sh49-12" value="+ Id string {get}" style="text;strokeColor=none;fillColor=none;align=left;verticalAlign=top;spacingLeft=4;spacingRight=4;overflow=hidden;rotatable=0;points=[[0,0.5],[1,0.5]];portConstraint=eastwest;whiteSpace=wrap;html=1;" vertex="1" parent="ZE7YXQP_bmyyAzH6sh49-1">
          <mxGeometry y="138" width="160" height="26" as="geometry" />
        </mxCell>
        <mxCell id="ZE7YXQP_bmyyAzH6sh49-14" value="+ Clignote bool {get set}" style="text;strokeColor=none;fillColor=none;align=left;verticalAlign=top;spacingLeft=4;spacingRight=4;overflow=hidden;rotatable=0;points=[[0,0.5],[1,0.5]];portConstraint=eastwest;whiteSpace=wrap;html=1;" vertex="1" parent="ZE7YXQP_bmyyAzH6sh49-1">
          <mxGeometry y="164" width="160" height="26" as="geometry" />
        </mxCell>
        <mxCell id="ZE7YXQP_bmyyAzH6sh49-13" value="+ Allumer bool {get set}" style="text;strokeColor=none;fillColor=none;align=left;verticalAlign=top;spacingLeft=4;spacingRight=4;overflow=hidden;rotatable=0;points=[[0,0.5],[1,0.5]];portConstraint=eastwest;whiteSpace=wrap;html=1;" vertex="1" parent="ZE7YXQP_bmyyAzH6sh49-1">
          <mxGeometry y="190" width="160" height="26" as="geometry" />
        </mxCell>
        <mxCell id="ZE7YXQP_bmyyAzH6sh49-11" value="+ Color int {get set}" style="text;strokeColor=none;fillColor=none;align=left;verticalAlign=top;spacingLeft=4;spacingRight=4;overflow=hidden;rotatable=0;points=[[0,0.5],[1,0.5]];portConstraint=eastwest;whiteSpace=wrap;html=1;" vertex="1" parent="ZE7YXQP_bmyyAzH6sh49-1">
          <mxGeometry y="216" width="160" height="26" as="geometry" />
        </mxCell>
        <mxCell id="ZE7YXQP_bmyyAzH6sh49-7" value="" style="line;strokeWidth=1;fillColor=none;align=left;verticalAlign=middle;spacingTop=-1;spacingLeft=3;spacingRight=3;rotatable=0;labelPosition=right;points=[];portConstraint=eastwest;strokeColor=inherit;" vertex="1" parent="ZE7YXQP_bmyyAzH6sh49-1">
          <mxGeometry y="242" width="160" height="8" as="geometry" />
        </mxCell>
        <mxCell id="ZE7YXQP_bmyyAzH6sh49-4" value="+ Info(): string" style="text;strokeColor=none;fillColor=none;align=left;verticalAlign=top;spacingLeft=4;spacingRight=4;overflow=hidden;rotatable=0;points=[[0,0.5],[1,0.5]];portConstraint=eastwest;whiteSpace=wrap;html=1;" vertex="1" parent="ZE7YXQP_bmyyAzH6sh49-1">
          <mxGeometry y="250" width="160" height="26" as="geometry" />
        </mxCell>
        <mxCell id="ZE7YXQP_bmyyAzH6sh49-15" value="affiche les infos du feux" style="html=1;whiteSpace=wrap;" vertex="1" parent="1">
          <mxGeometry x="280" y="290" width="200" height="30" as="geometry" />
        </mxCell>
        <mxCell id="ZE7YXQP_bmyyAzH6sh49-16" value="permet de definir/savoir sa couleur" style="html=1;whiteSpace=wrap;" vertex="1" parent="1">
          <mxGeometry x="280" y="260" width="200" height="20" as="geometry" />
        </mxCell>
        <mxCell id="ZE7YXQP_bmyyAzH6sh49-17" value="permet de definir/savoir si il est allumer" style="html=1;whiteSpace=wrap;" vertex="1" parent="1">
          <mxGeometry x="280" y="230" width="240" height="20" as="geometry" />
        </mxCell>
        <mxCell id="ZE7YXQP_bmyyAzH6sh49-18" value="permet de definir/savoir si il clignote" style="html=1;whiteSpace=wrap;" vertex="1" parent="1">
          <mxGeometry x="280" y="200" width="200" height="20" as="geometry" />
        </mxCell>
        <mxCell id="ZE7YXQP_bmyyAzH6sh49-19" value="permet d&#39;obtenir l&#39;id" style="html=1;whiteSpace=wrap;" vertex="1" parent="1">
          <mxGeometry x="280" y="170" width="200" height="23" as="geometry" />
        </mxCell>
      </root>
    </mxGraphModel>
  </diagram>
</mxfile>
